<?xml version="1.0" standalone="no"?>
<svg xmlns:xlink="http://www.w3.org/1999/xlink" id="wave" style="transform:rotate(0deg); transition: 0.3s" viewBox="0 0 1440 100" version="1.1" xmlns="http://www.w3.org/2000/svg"><defs><linearGradient id="sw-gradient-0" x1="0" x2="0" y1="1" y2="0"><stop stop-color="rgba(243, 106, 62, 1)" offset="0%"/><stop stop-color="rgba(255, 179, 11, 1)" offset="100%"/></linearGradient></defs><path style="transform:translate(0, 0px); opacity:1" fill="url(#sw-gradient-0)" d="M0,20L10,31.7C20,43,40,67,60,78.3C80,90,100,90,120,86.7C140,83,160,77,180,65C200,53,220,37,240,25C260,13,280,7,300,16.7C320,27,340,53,360,56.7C380,60,400,40,420,30C440,20,460,20,480,30C500,40,520,60,540,56.7C560,53,580,27,600,13.3C620,0,640,0,660,3.3C680,7,700,13,720,23.3C740,33,760,47,780,55C800,63,820,67,840,66.7C860,67,880,63,900,53.3C920,43,940,27,960,16.7C980,7,1000,3,1020,11.7C1040,20,1060,40,1080,40C1100,40,1120,20,1140,16.7C1160,13,1180,27,1200,35C1220,43,1240,47,1260,45C1280,43,1300,37,1320,36.7C1340,37,1360,43,1380,43.3C1400,43,1420,37,1430,33.3L1440,30L1440,100L1430,100C1420,100,1400,100,1380,100C1360,100,1340,100,1320,100C1300,100,1280,100,1260,100C1240,100,1220,100,1200,100C1180,100,1160,100,1140,100C1120,100,1100,100,1080,100C1060,100,1040,100,1020,100C1000,100,980,100,960,100C940,100,920,100,900,100C880,100,860,100,840,100C820,100,800,100,780,100C760,100,740,100,720,100C700,100,680,100,660,100C640,100,620,100,600,100C580,100,560,100,540,100C520,100,500,100,480,100C460,100,440,100,420,100C400,100,380,100,360,100C340,100,320,100,300,100C280,100,260,100,240,100C220,100,200,100,180,100C160,100,140,100,120,100C100,100,80,100,60,100C40,100,20,100,10,100L0,100Z"/></svg>