<svg id="visual" viewBox="0 0 1400 100" width="1400" height="100" xmlns="http://www.w3.org/2000/svg" xmlns:xlink="http://www.w3.org/1999/xlink" version="1.1"><rect x="0" y="0" width="1400" height="100" fill="#181818"></rect><path d="M0 61L21.2 54C42.3 47 84.7 33 127.2 28.8C169.7 24.7 212.3 30.3 254.8 37.8C297.3 45.3 339.7 54.7 382 58C424.3 61.3 466.7 58.7 509 58.8C551.3 59 593.7 62 636.2 54.8C678.7 47.7 721.3 30.3 763.8 22.2C806.3 14 848.7 15 891 23.8C933.3 32.7 975.7 49.3 1018 49.7C1060.3 50 1102.7 34 1145.2 30.8C1187.7 27.7 1230.3 37.3 1272.8 42.3C1315.3 47.3 1357.7 47.7 1378.8 47.8L1400 48L1400 0L1378.8 0C1357.7 0 1315.3 0 1272.8 0C1230.3 0 1187.7 0 1145.2 0C1102.7 0 1060.3 0 1018 0C975.7 0 933.3 0 891 0C848.7 0 806.3 0 763.8 0C721.3 0 678.7 0 636.2 0C593.7 0 551.3 0 509 0C466.7 0 424.3 0 382 0C339.7 0 297.3 0 254.8 0C212.3 0 169.7 0 127.2 0C84.7 0 42.3 0 21.2 0L0 0Z" fill="#c7a991" stroke-linecap="round" stroke-linejoin="miter"></path></svg>